#!OML:ASF H:\Terrain\Patient Classification 1\Terrain2\Thursday\justin.ASF
:FULLY-SPECIFIED
:DEGREES
3275
root -12.5511 17.3895 3.51337 718.148 -182.921 -357.973
lowerback 7.05185 0.59169 0.255283
upperback 3.55433 1.09554 1.77767
thorax -0.318953 0.654034 1.60539
lowerneck -12.4079 -4.8865 -9.75176
upperneck 38.7737 -1.22652 3.65939
head 16.0985 0.037031 3.55785
rclavicle 5.2181e-015 1.61016e-014
rhumerus -32.4711 -10.236 -79.7463
rradius 28.4574
rwrist -7.31957
rhand -19.3638 12.8548
rfingers 7.12502
rthumb 6.95394 -17.011
lclavicle 5.2181e-015 1.61016e-014
lhumerus -38.0068 5.14567 83.7445
lradius 34.6672
lwrist 2.58367
lhand -12.1193 24.6335
lfingers 7.12502
lthumb 13.942 54.1461
rfemur -14.9646 -5.53303 18.1413
rtibia 74.1344
rfoot 11.204 -4.33327
rtoes 13.0183
lfemur -15.052 2.25289 -20.2389
ltibia 30.4212
lfoot -9.25188 -5.53833
ltoes 8.42034
3276
root -12.5705 17.4011 3.41396 717.98 -182.841 -357.816
lowerback 7.22129 0.535375 0.465166
upperback 3.50375 1.03962 1.82495
thorax -0.460888 0.629367 1.53734
lowerneck -11.8303 -4.95004 -9.91024
upperneck 38.7023 -1.29018 3.66904
head 15.9336 0.00880796 3.57518
rclavicle 1.6201e-014 7.95139e-015
rhumerus -32.5808 -10.3922 -79.6323
rradius 28.7115
rwrist -7.74947
rhand -19.4952 12.7777
rfingers 7.12502
rthumb 6.82716 -17.0922
lclavicle 1.6201e-014 7.95139e-015
lhumerus -37.9958 5.4941 83.459
lradius 34.8074
lwrist 2.52838
lhand -11.5401 25.2225
lfingers 7.12502
lthumb 14.5001 54.6958
rfemur -15.921 -5.84505 18.3438
rtibia 74.9226
rfoot 9.5007 -4.86048
rtoes 12.8632
lfemur -14.4184 2.00804 -20.1649
ltibia 30.3496
lfoot -9.59444 -5.36113
ltoes 8.13977
3277
root -12.5858 17.4084 3.31249 717.874 -182.823 -357.626
lowerback 7.31758 0.526301 0.689915
upperback 3.42764 1.04283 1.84795
thorax -0.589504 0.632288 1.4324
lowerneck -11.701 -4.935 -9.57457
upperneck 38.8323 -1.19603 3.37998
head 15.9515 0.077638 3.41454
rclavicle -2.13694e-015 -2.78299e-015
rhumerus -32.7268 -10.7236 -79.5592
rradius 28.9709
rwrist -8.15793
rhand -19.6399 13.0937
rfingers 7.12502
rthumb 6.68747 -16.7807
lclavicle -2.13694e-015 -2.78299e-015
lhumerus -37.9273 5.63045 83.2282
lradius 34.8895
lwrist 2.46838
lhand -12.898 24.2003
lfingers 7.12502
lthumb 13.1915 53.7629
rfemur -16.8531 -6.08652 18.6288
rtibia 75.5048
rfoot 7.91307 -5.31068
rtoes 11.3638
lfemur -13.9136 1.7688 -20.0225
ltibia 30.4112
lfoot -9.87568 -5.16429
ltoes 8.77548
3278
root -12.5967 17.406 3.2121 717.868 -182.687 -357.58
lowerback 7.2705 0.465533 0.66596
upperback 3.38521 0.95691 1.87443
thorax -0.606219 0.587423 1.47995
lowerneck -11.9662 -4.9301 -9.16915
upperneck 39.2205 -1.04597 3.04432
head 16.1962 0.171312 3.24703
rclavicle -1.13307e-014 7.35503e-015
rhumerus -32.8135 -10.8437 -79.552
rradius 29.467
rwrist -8.73533
rhand -19.6532 13.2607
rfingers 7.12502
rthumb 6.67459 -16.6141
lclavicle -1.13307e-014 7.35503e-015
lhumerus -37.8511 5.19048 83.4705
lradius 34.7813
lwrist 5.21406
lhand -20.7559 14.7004
lfingers 7.12502
lthumb 5.61003 44.6062
rfemur -17.9196 -6.39763 18.7651
rtibia 75.9575
rfoot 6.39141 -5.67169
rtoes 10.0861
lfemur -13.6246 1.65667 -20.0617
ltibia 30.6213
lfoot -10.3191 -5.09429
ltoes 7.41962
3279
root -12.6072 17.3999 3.11507 717.876 -182.57 -357.138
lowerback 7.20105 0.376784 1.00912
upperback 3.43399 0.873858 2.0446
thorax -0.513811 0.553742 1.47013
lowerneck -12.0703 -5.07322 -9.24735
upperneck 39.4252 -1.18632 3.03431
head 16.3476 0.102739 3.24585
rclavicle -5.81445e-015 4.77083e-015
rhumerus -32.7065 -10.7841 -79.5648
rradius 29.9781
rwrist -9.50119
rhand -19.6764 13.3083
rfingers 7.12502
rthumb 6.65225 -16.5672
lclavicle -5.81445e-015 4.77083e-015
lhumerus -37.5778 5.64157 83.0771
lradius 35.083
lwrist 4.17145
lhand -16.0663 21.7789
lfingers 7.12502
lthumb 10.1361 51.5147
rfemur -18.9915 -6.69168 19.3639
rtibia 76.2182
rfoot 5.02081 -6.02388
rtoes 9.89303
lfemur -13.3798 1.40525 -19.6612
ltibia 30.8637
lfoot -10.8141 -4.96098
ltoes 7.30153
3280
root -12.6204 17.4008 3.01496 717.8 -182.402 -357.066
lowerback 7.20348 0.297922 1.07511
upperback 3.48783 0.779899 2.07543
thorax -0.45758 0.510502 1.47234
lowerneck -12.1911 -5.16789 -9.23632
upperneck 39.5593 -1.26999 2.95224
head 16.4578 0.0582952 3.20124
rclavicle 4.57205e-015 2.14687e-014
rhumerus -32.4993 -10.7112 -79.6168
rradius 30.3417
rwrist -10.2338
rhand -19.6697 12.8764
rfingers 7.12502
rthumb 6.65863 -16.9989
lclavicle 4.57205e-015 2.14687e-014
lhumerus -37.3021 5.6 82.9472
lradius 35.2576
lwrist 4.48199
lhand -16.7003 22.4698
lfingers 7.12502
lthumb 9.52453 52.2345
rfemur -19.8849 -7.03531 19.5177
rtibia 76.2791
rfoot 3.66643 -6.26388
rtoes 10.329
lfemur -13.0228 0.994987 -19.6642
ltibia 31.105
lfoot -11.2668 -4.79607
ltoes 9.19943
3281
root -12.6351 17.4038 2.91279 717.661 -182.208 -357.435
lowerback 7.24175 0.261071 0.730371
upperback 3.54925 0.708306 1.99697
thorax -0.416736 0.471848 1.59066
lowerneck -12.5066 -5.14926 -9.19815
upperneck 39.8455 -1.16088 2.96741
head 16.6821 0.117961 3.24049
rclavicle 8.24956e-015 -1.98785e-015
rhumerus -32.3842 -10.666 -79.6081
rradius 30.7702
rwrist -10.724
rhand -19.6218 12.2677
rfingers 7.12502
rthumb 6.70488 -17.6061
lclavicle 8.24956e-015 -1.98785e-015
lhumerus -37.0788 5.35718 82.8921
lradius 35.5182
lwrist 4.62828
lhand -19.8943 11.5212
lfingers 7.12502
lthumb 6.44181 41.4032
rfemur -20.6501 -7.24423 19.1923
rtibia 76.1707
rfoot 2.30447 -6.35809
rtoes 10.6008
lfemur -12.5868 0.636643 -20.1709
ltibia 31.3522
lfoot -11.659 -4.62553
ltoes 10.1139
3282
root -12.6459 17.4001 2.81286 717.556 -182.072 -357.321
lowerback 7.28892 0.160944 0.713228
upperback 3.58504 0.585477 2.12344
thorax -0.404443 0.41347 1.73981
lowerneck -12.5627 -5.08646 -9.40431
upperneck 39.9135 -1.05645 3.16568
head 16.7308 0.158167 3.38991
rclavicle 9.44227e-015 2.78299e-015
rhumerus -32.3976 -10.3617 -79.5998
rradius 31.2771
rwrist -11.1785
rhand -19.7667 12.0219
rfingers 7.12502
rthumb 6.56504 -17.8563
lclavicle 9.44227e-015 2.78299e-015
lhumerus -37.0621 5.34424 82.8448
lradius 36.0814
lwrist 4.627
lhand -16.3799 21.1175
lfingers 7.12502
lthumb 9.83367 50.8679
rfemur -21.4143 -7.29522 19.4676
rtibia 75.9242
rfoot 1.12986 -6.36934
rtoes 10.6553
lfemur -12.1374 0.411893 -20.1088
ltibia 31.5149
lfoot -12.0097 -4.65119
ltoes 10.5308
3283
root -12.6545 17.3882 2.7185 717.652 -181.85 -357.186
lowerback 7.27695 0.0229703 0.761271
upperback 3.45286 0.399609 2.19371
thorax -0.529525 0.317253 1.79867
lowerneck -12.1684 -5.00807 -9.47658
upperneck 39.6174 -0.99562 3.13252
head 16.467 0.16679 3.3763
rclavicle 4.12478e-015 3.97569e-016
rhumerus -32.5181 -10.046 -79.6886
rradius 31.7134
rwrist -11.6474
rhand -19.8457 12.0059
rfingers 7.12502
rthumb 6.48877 -17.8747
lclavicle 4.12478e-015 3.97569e-016
lhumerus -37.193 5.2748 82.7836
lradius 36.5619
lwrist 5.33283
lhand -15.2771 24.3618
lfingers 7.12502
lthumb 10.8975 54.059
rfemur -22.4472 -7.45403 19.7691
rtibia 75.6073
rfoot -0.187446 -6.29367
rtoes 11.4834
lfemur -11.9036 0.341734 -20.0063
ltibia 31.5994
lfoot -12.3943 -4.92379
ltoes 11.6383
3284
root -12.6663 17.3717 2.6254 717.728 -181.599 -357.606
lowerback 7.25404 -0.0374904 0.422303
upperback 3.32456 0.274676 2.01575
thorax -0.645997 0.243719 1.81486
lowerneck -11.7701 -4.99731 -9.57648
upperneck 39.4016 -1.07985 3.28987
head 16.262 0.142476 3.43478
rclavicle 9.44227e-016 -2.26615e-014
rhumerus -32.5765 -10.0271 -79.8012
rradius 32.0271
rwrist -11.9857
rhand -19.8527 12.1672
rfingers 7.12502
rthumb 6.48199 -17.7136
lclavicle 9.44227e-016 -2.26615e-014
lhumerus -37.2334 4.94136 82.6938
lradius 36.933
lwrist 6.12939
lhand -16.3101 23.8014
lfingers 7.12502
lthumb 9.90094 53.5485
rfemur -23.4846 -7.80153 19.3595
rtibia 75.1931
rfoot -1.80747 -6.00296
rtoes 11.8119
lfemur -11.6925 0.397944 -20.5634
ltibia 31.6934
lfoot -12.8185 -5.11694
ltoes 11.6839
3285
root -12.6728 17.3552 2.52667 717.548 -181.398 -357.887
lowerback 7.32135 -0.113379 0.0869595
upperback 3.35427 0.150033 1.93837
thorax -0.648937 0.178284 1.93337
lowerneck -11.5982 -5.01022 -9.74593
upperneck 39.3538 -1.196 3.60454
head 16.2089 0.11343 3.58196
rclavicle 7.95139e-016 -2.78299e-015
rhumerus -32.535 -9.88242 -79.893
rradius 32.4027
rwrist -12.1475
rhand -19.8497 12.095
rfingers 7.12502
rthumb 6.48494 -17.7857
lclavicle 7.95139e-016 -2.78299e-015
lhumerus -37.1561 4.9441 82.465
lradius 37.0045
lwrist 5.98473
lhand -16.758 22.5074
lfingers 7.12502
lthumb 9.46882 52.2746
rfemur -24.1298 -8.15056 19.1325
rtibia 74.599
rfoot -3.49198 -5.64671
rtoes 8.92513
lfemur -11.1838 0.614021 -20.9303
ltibia 31.8126
lfoot -13.2878 -5.35534
ltoes 9.53405
3286
root -12.6718 17.3389 2.42425 717.493 -181.128 -357.877
lowerback 7.15883 -0.253836 -0.0795064
upperback 3.42961 -0.0454565 1.98293
thorax -0.474163 0.0795379 2.08783
lowerneck -11.7429 -4.96249 -9.44028
upperneck 39.3719 -1.12038 3.36487
head 16.2366 0.152238 3.43403
rclavicle -4.67144e-015 -8.74653e-015
rhumerus -32.4319 -9.49855 -80.061
rradius 32.8916
rwrist -12.3521
rhand -19.673 12.2857
rfingers 7.12502
rthumb 6.6555 -17.5898
lclavicle -4.67144e-015 -8.74653e-015
lhumerus -36.9519 5.11641 82.2468
lradius 36.9343
lwrist 5.83278
lhand -16.7251 21.773
lfingers 7.12502
lthumb 9.50061 51.5388
rfemur -24.8099 -8.40332 19.3421
rtibia 73.8439
rfoot -5.04849 -5.43852
rtoes 5.52741
lfemur -10.8334 0.689898 -20.936
ltibia 32.0071
lfoot -13.6442 -5.65049
ltoes 8.67893
3287
root -12.6771 17.3241 2.32383 717.67 -180.943 -358.09
lowerback 6.8635 -0.291424 -0.337799
upperback 3.44633 -0.12344 1.92013
thorax -0.289559 0.0334714 2.17321
lowerneck -11.929 -4.95733 -9.16193
upperneck 39.4254 -1.13753 3.24711
head 16.3027 0.166154 3.33269
rclavicle -5.71506e-015 1.82882e-014
rhumerus -32.2066 -9.30572 -80.2076
rradius 33.1332
rwrist -12.5379
rhand -19.6715 12.7174
rfingers 7.12502
rthumb 6.65694 -17.1579
lclavicle -5.71506e-015 1.82882e-014
lhumerus -36.6342 4.84665 82.2674
lradius 37.1318
lwrist 6.32307
lhand -16.8409 23.1781
lfingers 7.12502
lthumb 9.38881 52.949
rfemur -25.7875 -8.53862 19.2858
rtibia 72.96
rfoot -6.14111 -5.33771
rtoes 5.26336
lfemur -10.814 0.737175 -21.2151
ltibia 32.2967
lfoot -13.9788 -5.84492
ltoes 9.65646
3288
root -12.6877 17.3105 2.22715 717.77 -180.9 -358.165
lowerback 6.78034 -0.252611 -0.36747
upperback 3.4254 -0.0792649 1.88245
thorax -0.266884 0.0533222 2.14771
lowerneck -11.937 -5.03175 -9.25479
upperneck 39.4349 -1.33892 3.52939
head 16.33 0.106041 3.44213
rclavicle 2.98177e-015 1.55052e-014
rhumerus -32.0469 -9.18752 -80.2722
rradius 33.3554
rwrist -12.6635
rhand -19.8516 12.4295
rfingers 7.12502
rthumb 6.4831 -17.4513
lclavicle 2.98177e-015 1.55052e-014
lhumerus -36.4504 4.37323 82.3543
lradius 37.5407
lwrist 6.77194
lhand -16.9623 24.3949
lfingers 7.12502
lthumb 9.27167 54.171
rfemur -26.644 -8.58583 19.3633
rtibia 71.926
rfoot -7.03941 -5.36855
rtoes 5.8078
lfemur -10.726 0.88561 -21.3417
ltibia 32.5905
lfoot -14.3889 -5.99357
ltoes 10.1279
